<?xml version="1.0" encoding="UTF-8"?>
<svg version="1.1" xmlns="http://www.w3.org/2000/svg" width="512" height="512">
<path d="M0 0 C1.42854389 -0.00899386 2.85708697 -0.01811607 4.28562927 -0.02735901 C7.27190417 -0.04377132 10.25806806 -0.0515341 13.24438477 -0.05444336 C16.27501571 -0.05873914 19.30479215 -0.07951895 22.33520508 -0.1159668 C47.36260825 -0.41166383 66.69903579 0.97794526 85.9609375 18.98828125 C99.21075928 32.80433473 103.73876047 48.78043014 103.64453125 67.49609375 C103.64655861 68.933758 103.64947552 70.37142125 103.65322876 71.80908203 C103.65762106 74.80446277 103.65132215 77.79957291 103.63720703 80.79492188 C103.62011671 84.60402985 103.6299747 88.41250334 103.64792442 92.22158813 C103.65884679 95.18502446 103.65527758 98.14831425 103.64754105 101.11175537 C103.64556229 102.51495441 103.64791499 103.91816745 103.65497971 105.3213501 C103.72946259 124.26493713 97.72546089 140.72323453 84.24609375 154.37109375 C69.53989543 167.57324906 53.59646198 171.68596568 34.34765625 171.671875 C33.03630707 171.67616013 31.72495789 171.68044525 30.37387085 171.68486023 C27.61216153 171.69227241 24.85058016 171.69206797 22.08886719 171.68676758 C18.58363435 171.68098052 15.07893123 171.69790948 11.57378578 171.72111225 C8.18588921 171.73955379 4.79810244 171.73566104 1.41015625 171.734375 C0.16916168 171.74358475 -1.07183289 171.75279449 -2.35043335 171.76228333 C-21.44282213 171.66218718 -36.69518323 165.14054187 -50.50390625 152.05859375 C-61.38928325 140.66782425 -67.81233763 126.01089369 -67.91503906 110.18896484 C-67.92464661 108.98686371 -67.93425415 107.78476257 -67.94415283 106.54623413 C-67.94840271 105.25867218 -67.95265259 103.97111023 -67.95703125 102.64453125 C-67.95985863 101.98099262 -67.962686 101.31745399 -67.96559906 100.63380814 C-67.98054423 97.11866109 -67.98980179 93.60355455 -67.99414062 90.08837891 C-67.99960262 86.49114718 -68.02359546 82.89429827 -68.05211258 79.2971859 C-68.07091232 76.50187159 -68.07595377 73.70664609 -68.0774765 70.91127396 C-68.08190444 68.95068191 -68.10046693 66.99013775 -68.1194458 65.02963257 C-68.07435975 46.68611531 -61.74636439 30.50543521 -48.75390625 17.37109375 C-34.11155352 4.39217801 -19.14875973 0.06301914 0 0 Z " fill="#54ABFF" transform="translate(344.75390625,63.62890625)"/>
<path d="M0 0 C1.34844593 -0.00389829 2.69689066 -0.00823524 4.04533386 -0.01298523 C6.86009719 -0.02040633 9.674735 -0.0201868 12.48950195 -0.01489258 C16.06314112 -0.00911081 19.63625981 -0.02601726 23.20981312 -0.04923725 C25.99227304 -0.06410646 28.77461149 -0.06482847 31.55710411 -0.06172752 C33.50438607 -0.06247761 35.45164943 -0.0762429 37.39888 -0.09040833 C56.5482502 0.00805973 71.73242547 6.4626188 85.66796875 19.48828125 C96.66783961 30.96126484 103.03838613 45.58179649 103.14160156 61.48291016 C103.15120911 62.68501129 103.16081665 63.88711243 103.17071533 65.12564087 C103.17709015 67.0569838 103.17709015 67.0569838 103.18359375 69.02734375 C103.18783482 70.02265169 103.18783482 70.02265169 103.19216156 71.03806686 C103.20710673 74.55321391 103.21636429 78.06832045 103.22070312 81.58349609 C103.22616512 85.18072782 103.25015796 88.77757673 103.27867508 92.3746891 C103.29747482 95.17000341 103.30251627 97.96522891 103.304039 100.76060104 C103.30846694 102.72119309 103.32702943 104.68173725 103.3460083 106.64224243 C103.30245699 124.36134132 97.45989981 139.26733686 85.77734375 152.54296875 C71.55266027 166.56898347 54.73806771 171.61602243 35.21875 171.63671875 C33.78158949 171.64316112 32.34443024 171.6498905 30.90727234 171.65689087 C27.90242479 171.66881908 24.89769179 171.67257649 21.89282227 171.67138672 C18.07813025 171.67118417 14.26418856 171.698439 10.44967365 171.73293114 C7.48187517 171.75538233 4.51425181 171.7592187 1.54637718 171.75816727 C0.14201469 171.76049777 -1.26235457 171.76917389 -2.6666317 171.784832 C-20.6215768 171.96624862 -35.72478885 166.37502271 -49.01953125 154.30078125 C-63.69706054 139.83218476 -68.46214602 123.8412583 -68.61328125 103.6875 C-68.63502296 98.5405098 -68.5921315 93.394886 -68.53771973 88.24822998 C-68.51342147 85.22913109 -68.51900006 82.21039341 -68.52498627 79.19122601 C-68.52807713 76.24920266 -68.51586391 73.30739694 -68.49885559 70.36542702 C-68.49191128 68.9761981 -68.48869042 67.5869446 -68.48954773 66.19769859 C-68.47182873 47.33180594 -62.44080973 30.88982571 -49.01953125 17.30078125 C-34.70635455 4.45145217 -18.89536776 -0.01353799 0 0 Z " fill="#54ABFF" transform="translate(132.01953125,276.69921875)"/>
<path d="M0 0 C1.43766425 -0.00202736 2.8753275 -0.00494427 4.31298828 -0.00869751 C7.30836902 -0.01308981 10.30347916 -0.0067909 13.29882812 0.00732422 C17.1079361 0.02441454 20.91640959 0.01455655 24.72549438 -0.00339317 C27.68893071 -0.01431554 30.6522205 -0.01074633 33.61566162 -0.0030098 C35.01886066 -0.00103104 36.4220737 -0.00338374 37.82525635 -0.01044846 C56.76884338 -0.08493134 73.22714078 5.91907036 86.875 19.3984375 C99.72432908 33.7116142 104.18931924 49.52260099 104.17578125 68.41796875 C104.17967954 69.76641468 104.18401649 71.11485941 104.18876648 72.46330261 C104.19618758 75.27806594 104.19596805 78.09270375 104.19067383 80.9074707 C104.18489206 84.48110987 104.20179851 88.05422856 104.2250185 91.62778187 C104.23988771 94.41024179 104.24060972 97.19258024 104.23750877 99.97507286 C104.23825886 101.92235482 104.25202415 103.86961818 104.26618958 105.81684875 C104.16758049 124.99364576 97.71120875 140.26924493 84.5625 154.1484375 C73.21262697 164.99473255 58.57448314 171.45511679 42.80053711 171.55957031 C41.62168442 171.56917786 40.44283173 171.5787854 39.22825623 171.58868408 C37.96570511 171.59293396 36.70315399 171.59718384 35.40234375 171.6015625 C34.08770645 171.60726257 32.77306915 171.61296265 31.41859436 171.61883545 C28.63721332 171.62931148 25.85586085 171.63517528 23.07446289 171.63867188 C19.54682814 171.64412792 16.01958494 171.66810763 12.49207211 171.69664383 C9.7473295 171.71547056 7.0026771 171.72048646 4.25787544 171.72200775 C2.33666094 171.72642608 0.41549513 171.74497664 -1.50563049 171.76397705 C-19.62624932 171.71869355 -34.68561583 166.22075972 -48.3671875 154.19921875 C-62.52941215 139.81633621 -67.43112165 123.38671018 -67.49609375 103.64453125 C-67.50508761 102.21598736 -67.51420982 100.78744428 -67.52345276 99.35890198 C-67.53986507 96.37262708 -67.54762785 93.38646319 -67.55053711 90.40014648 C-67.55483289 87.36951554 -67.5756127 84.3397391 -67.61206055 81.30932617 C-67.90775758 56.281923 -66.51814849 36.94549546 -48.5078125 17.68359375 C-34.69175902 4.43377197 -18.71566361 -0.09422922 0 0 Z " fill="#54ABFF" transform="translate(131.125,63.6015625)"/>
<path d="M0 0 C5.52013044 3.08039076 8.60528998 6.87836995 10.625 12.9375 C10.71222452 14.54845858 10.74267272 16.16281016 10.73852539 17.77612305 C10.73841209 19.24730843 10.73841209 19.24730843 10.73829651 20.74821472 C10.73313522 21.80454605 10.72797394 22.86087738 10.72265625 23.94921875 C10.7212413 25.03258011 10.71982635 26.11594147 10.71836853 27.23213196 C10.71276559 30.69644925 10.70021258 34.1607022 10.6875 37.625 C10.68248538 39.97200428 10.67792241 42.31900956 10.67382812 44.66601562 C10.66279521 50.42319908 10.6460542 56.18034494 10.625 61.9375 C11.20414154 61.92639694 11.78328308 61.91529388 12.37997437 61.90385437 C18.44765688 61.79260696 24.51504631 61.71756379 30.58349609 61.6628418 C32.84338157 61.63781091 35.10318702 61.60377562 37.36279297 61.56030273 C40.62487619 61.49914767 43.88588245 61.47117498 47.1484375 61.44921875 C48.64593033 61.41050911 48.64593033 61.41050911 50.17367554 61.37101746 C57.26612349 61.36822805 62.73185353 62.89032712 68.625 66.9375 C74.48387385 73.0747103 75.09425456 79.17129776 75.03515625 87.34375 C74.3430871 93.40759394 71.56788794 97.41099189 66.99609375 101.3359375 C63.00631593 104.15578047 59.58310834 105.06335632 54.78637695 105.05102539 C53.31519157 105.05091209 53.31519157 105.05091209 51.81428528 105.05079651 C50.75795395 105.04563522 49.70162262 105.04047394 48.61328125 105.03515625 C47.52991989 105.0337413 46.44655853 105.03232635 45.33036804 105.03086853 C41.86605075 105.02526559 38.4017978 105.01271258 34.9375 105 C32.59049572 104.99498538 30.24349044 104.99042241 27.89648438 104.98632812 C22.13930092 104.97529521 16.38215506 104.9585542 10.625 104.9375 C10.63832367 105.5439183 10.65164734 106.15033661 10.66537476 106.77513123 C10.79868649 113.11834381 10.88884617 119.46115501 10.95458984 125.80541992 C10.98466039 128.16919128 11.02552846 130.53285199 11.07763672 132.89624023 C11.15087738 136.30480318 11.18455525 139.71188423 11.2109375 143.12109375 C11.24190521 144.16833115 11.27287292 145.21556854 11.30477905 146.29454041 C11.30812652 153.6837063 9.57118761 158.39188149 4.625 163.9375 C-1.95144488 169.64072527 -9.05035834 169.50205646 -17.375 168.9375 C-23.36353562 166.90567541 -27.42980836 162.95318466 -30.49902344 157.46679688 C-33.02233645 152.26355347 -32.88203183 147.34349004 -32.765625 141.65625 C-32.75996521 140.60215942 -32.75430542 139.54806885 -32.74847412 138.46203613 C-32.72621734 135.12004746 -32.67603977 131.77916053 -32.625 128.4375 C-32.60492123 126.1614739 -32.58667288 123.88543087 -32.5703125 121.609375 C-32.5263878 116.05171218 -32.45958337 110.49468483 -32.375 104.9375 C-32.97555206 104.94416183 -33.57610413 104.95082367 -34.19485474 104.95768738 C-40.45667151 105.02416078 -46.7183877 105.06935047 -52.98046875 105.10229492 C-55.31612216 105.11736261 -57.65174737 105.13782049 -59.98730469 105.16381836 C-63.34837819 105.20028958 -66.70907692 105.2172469 -70.0703125 105.23046875 C-71.11115997 105.24595261 -72.15200745 105.26143646 -73.22439575 105.27738953 C-80.19820097 105.27900106 -84.51871459 104.31773784 -90 99.75 C-95.08253758 93.73120549 -97.0951236 88.57135041 -96.75390625 80.61328125 C-95.78450791 73.76753009 -92.47349851 69.49959389 -87.25390625 65.1640625 C-83.41674883 62.65914061 -79.96044827 61.68638946 -75.40112305 61.71044922 C-74.44050461 61.71060028 -73.47988617 61.71075134 -72.49015808 61.71090698 C-71.4660231 61.72122955 -70.44188812 61.73155212 -69.38671875 61.7421875 C-67.79921562 61.74643234 -67.79921562 61.74643234 -66.17964172 61.75076294 C-62.80714502 61.7619371 -59.43491613 61.78703693 -56.0625 61.8125 C-53.7727903 61.82253336 -51.48307643 61.83165859 -49.19335938 61.83984375 C-43.58714857 61.8618674 -37.98109342 61.89531764 -32.375 61.9375 C-32.38388245 61.35391724 -32.39276489 60.77033447 -32.4019165 60.16906738 C-32.49073525 54.06919191 -32.55087693 47.96950156 -32.59472656 41.86914062 C-32.61478317 39.59562716 -32.64203538 37.3221649 -32.67675781 35.04882812 C-32.72553712 31.77200651 -32.74802897 28.49586975 -32.765625 25.21875 C-32.78627014 24.21009888 -32.80691528 23.20144775 -32.82818604 22.16223145 C-32.83047808 14.87627274 -31.44455393 9.49461172 -26.62890625 3.9140625 C-26.07074219 3.46804688 -25.51257813 3.02203125 -24.9375 2.5625 C-24.38191406 2.10101563 -23.82632813 1.63953125 -23.25390625 1.1640625 C-16.04505584 -3.54192301 -7.71848698 -3.50735432 0 0 Z " fill="#0077EE" transform="translate(373.375,279.0625)"/>
</svg>
